<svg width="400" height="300" viewBox="0 0 400 300" xmlns="http://www.w3.org/2000/svg">
  <!-- Background -->
  <rect width="400" height="300" fill="#0f172a"/>
  
  <!-- Header -->
  <rect x="0" y="0" width="400" height="60" fill="#1e293b"/>
  <text x="20" y="35" font-family="Arial, sans-serif" font-size="18" font-weight="bold" fill="#ff6c00">🚛 SCM Order Tracker</text>
  <circle cx="350" cy="30" r="6" fill="#10b981"/>
  <text x="365" y="35" font-family="Arial, sans-serif" font-size="12" fill="#10b981">Live</text>
  
  <!-- KPI Cards -->
  <rect x="20" y="80" width="100" height="60" fill="#1e293b" stroke="#374151" stroke-width="1"/>
  <text x="25" y="100" font-family="Arial, sans-serif" font-size="12" fill="#9ca3af">Orders Tracked</text>
  <text x="25" y="125" font-family="Arial, sans-serif" font-size="20" font-weight="bold" fill="#ff6c00">2,347</text>
  
  <rect x="140" y="80" width="100" height="60" fill="#1e293b" stroke="#374151" stroke-width="1"/>
  <text x="145" y="100" font-family="Arial, sans-serif" font-size="12" fill="#9ca3af">On-Time Rate</text>
  <text x="145" y="125" font-family="Arial, sans-serif" font-size="20" font-weight="bold" fill="#10b981">94.2%</text>
  
  <rect x="260" y="80" width="100" height="60" fill="#1e293b" stroke="#374151" stroke-width="1"/>
  <text x="265" y="100" font-family="Arial, sans-serif" font-size="12" fill="#9ca3af">Active Carriers</text>
  <text x="265" y="125" font-family="Arial, sans-serif" font-size="20" font-weight="bold" fill="#a678ff">23</text>
  
  <!-- Chart Area -->
  <rect x="20" y="160" width="360" height="120" fill="#1e293b" stroke="#374151" stroke-width="1"/>
  
  <!-- Mock Chart Elements -->
  <circle cx="200" cy="220" r="50" fill="none" stroke="#10b981" stroke-width="8" stroke-dasharray="80 40"/>
  <circle cx="200" cy="220" r="50" fill="none" stroke="#f59e0b" stroke-width="8" stroke-dasharray="20 100" stroke-dashoffset="80"/>
  <circle cx="200" cy="220" r="50" fill="none" stroke="#ef4444" stroke-width="8" stroke-dasharray="15 105" stroke-dashoffset="100"/>
  
  <!-- Legend -->
  <circle cx="280" cy="190" r="4" fill="#10b981"/>
  <text x="290" y="195" font-family="Arial, sans-serif" font-size="10" fill="#9ca3af">On Track</text>
  <circle cx="280" cy="210" r="4" fill="#f59e0b"/>
  <text x="290" y="215" font-family="Arial, sans-serif" font-size="10" fill="#9ca3af">At Risk</text>
  <circle cx="280" cy="230" r="4" fill="#ef4444"/>
  <text x="290" y="235" font-family="Arial, sans-serif" font-size="10" fill="#9ca3af">Delayed</text>
</svg>
